#N canvas 356 228 533 303 10;
#X declare -lib ofelia;
#X obj 16 15 cnv 15 500 270 empty empty empty 20 12 0 14 #f8fc00 #404040 0;
#X obj 41 25 cnv 15 450 250 empty empty ofxStableDiffusion 40 50 0 30 #00f8fc #f8fc00 0;
#X obj 82 187 r \$0-goo;
#X obj 82 208 print Slider value;
#X obj 138 187 declare -lib ofelia;
#X obj 82 124 loadbang;
#X obj 82 166 ofelia;
#X msg 82 145 read -c data/ofxStableDiffusion.lua;
#X connect 2 0 3 0;
#X connect 5 0 7 0;
#X connect 7 0 6 0;
